:FULLY-SPECIFIED
:FORCE-ALL-JOINTS-BE-3DOF
:DEGREES
510
root -4.38423 14.8355 -41.4329 4.13799 26.2775 -9.04914
lfemur -50.4315 30.4072 -29.4263
ltibia 71.0412 0 0
lfoot -27.6306 31.2705 -0.0446767
ltoes 6.73718 0 0
rfemur -23.7792 -3.76269 14.0853
rtibia 75.789 0 0
rfoot -6.6436 -21.1083 -0.00102755
rtoes 14.7708 0 0
lowerback 16.0491 -1.26072 -6.50806
upperback -0.771271 -2.50477 4.24548
thorax -9.41039 -0.746849 8.99902
lowerneck 6.87373 -16.4397 -16.7573
upperneck -1.3909 -23.4825 21.5109
head 3.14643 -12.0739 8.16606
lclavicle 1.0891e-14 1.52156e-15 -1.60559e-32
lhumerus -4.51213 -64.091 99.1486
lradius 82.3341 0 0
lwrist 26.4973 0 0
lhand -5.17885 41.8563 -0.0741307
lfingers 7.12502 0 0
lthumb 20.6205 70.7634 -0.0757974
rclavicle 1.0891e-14 1.52156e-15 -1.60559e-32
rhumerus 65.7481 31.412 -22.3127
rradius 109.245 0 0
rwrist -28.791 0 0
rhand 7.72259 -18.15 0.0278485
rfingers 7.12502 0 0
rthumb 32.9286 -44.7711 0.116176
511
root -4.46881 14.8209 -41.4672 4.04984 25.846 -8.9574
lfemur -49.5847 30.1267 -28.8546
ltibia 70.8821 0 0
lfoot -27.5327 31.1723 -0.0499325
ltoes 6.26051 0 0
rfemur -24.2077 -3.92327 13.9345
rtibia 75.5981 0 0
rfoot -6.59059 -20.6688 0.0125512
rtoes 14.5807 0 0
lowerback 16.0553 -1.21109 -6.52139
upperback -0.752084 -2.44611 4.20211
thorax -9.40388 -0.720209 8.94468
lowerneck 6.77745 -16.3815 -16.6996
upperneck -1.28515 -23.3957 21.3614
head 3.15485 -12.0218 8.11798
lclavicle 1.12292e-14 1.45337e-15 -4.91816e-33
lhumerus -6.01272 -63.592 99.8755
lradius 82.6299 0 0
lwrist 27.0598 0 0
lhand -5.26121 41.9543 -0.0796752
lfingers 7.12502 0 0
lthumb 20.5413 70.8686 -0.0814904
rclavicle 1.12292e-14 1.45337e-15 -4.91816e-33
rhumerus 64.8847 31.1894 -22.9449
rradius 108.402 0 0
rwrist -28.5895 0 0
rhand 7.35234 -18.3236 0.0526211
rfingers 7.12502 0 0
rthumb 32.5744 -44.9867 0.148251
512
root -4.55338 14.8063 -41.5014 3.95426 25.2836 -8.85399
lfemur -48.6416 29.8171 -28.2253
ltibia 70.6972 0 0
lfoot -27.4219 31.0618 -0.0557156
ltoes 5.72745 0 0
rfemur -24.6852 -4.11277 13.7668
rtibia 75.3898 0 0
rfoot -6.53394 -20.1758 0.0266064
rtoes 14.375 0 0
lowerback 16.0632 -1.15561 -6.53728
upperback -0.730505 -2.38087 4.15294
thorax -9.39687 -0.690577 8.8838
lowerneck 6.66743 -16.3154 -16.6357
upperneck -1.16285 -23.2974 21.1923
head 3.16561 -11.963 8.06354
lclavicle 1.15846e-14 1.37628e-15 6.42419e-33
lhumerus -7.66349 -63.0121 100.657
lradius 82.9621 0 0
lwrist 27.7032 0 0
lhand -5.35598 42.0683 -0.0860241
lfingers 7.12502 0 0
lthumb 20.4501 70.9909 -0.0880038
rclavicle 1.15846e-14 1.37628e-15 6.42419e-33
rhumerus 63.9115 30.9389 -23.655
rradius 107.455 0 0
rwrist -28.3494 0 0
rhand 6.92893 -18.5074 0.0781175
rfingers 7.12502 0 0
rthumb 32.1691 -45.218 0.182013
513
root -4.63795 14.7917 -41.5356 3.85118 24.5655 -8.7379
lfemur -47.5974 29.4774 -27.5375
ltibia 70.4833 0 0
lfoot -27.2975 30.9383 -0.0620141
ltoes 5.13478 0 0
rfemur -25.2142 -4.33509 13.5815
rtibia 75.1642 0 0
rfoot -6.47403 -19.6261 0.040922
rtoes 14.1543 0 0
lowerback 16.0729 -1.09394 -6.5561
upperback -0.706376 -2.30877 4.09749
thorax -9.38942 -0.657816 8.81598
lowerneck 6.54237 -16.2409 -16.5653
upperneck -1.02223 -23.1868 21.002
head 3.17911 -11.8968 8.00222
lclavicle 1.19533e-14 1.28958e-15 1.77502e-32
lhumerus -9.46293 -62.3414 101.485
lradius 83.333 0 0
lwrist 28.4354 0 0
lhand -5.46443 42.2003 -0.0932176
lfingers 7.12502 0 0
lthumb 20.3458 71.1322 -0.0953814
rclavicle 1.19533e-14 1.28958e-15 1.77502e-32
rhumerus 62.8213 30.6577 -24.4476
rradius 106.397 0 0
rwrist -28.0651 0 0
rhand 6.44731 -18.6998 0.103882
rfingers 7.12502 0 0
rthumb 31.708 -45.4638 0.21704
514
root -4.72253 14.7772 -41.5698 3.74034 23.6669 -8.60808
lfemur -46.4478 29.1057 -26.7905
ltibia 70.2375 0 0
lfoot -27.1583 30.8008 -0.0687982
ltoes 4.4793 0 0
rfemur -25.7969 -4.59419 13.3784
rtibia 74.9213 0 0
rfoot -6.41122 -19.0163 0.0552722
rtoes 13.9193 0 0
lowerback 16.0847 -1.02576 -6.57822
upperback -0.679543 -2.22951 4.03527
thorax -9.38155 -0.621791 8.74081
lowerneck 6.40098 -16.1571 -16.4882
upperneck -0.861534 -23.0629 20.7893
head 3.19577 -11.8228 7.93353
lclavicle 1.23313e-14 1.19258e-15 2.88349e-32
lhumerus -11.4068 -61.5697 102.348
lradius 83.7449 0 0
lwrist 29.2639 0 0
lhand -5.58784 42.3521 -0.101274
lfingers 7.12502 0 0
lthumb 20.227 71.2946 -0.10364
rclavicle 1.23313e-14 1.19258e-15 2.88349e-32
rhumerus 61.6068 30.3418 -25.327
rradius 105.221 0 0
rwrist -27.7311 0 0
rhand 5.90243 -18.899 0.129428
rfingers 7.12502 0 0
rthumb 31.186 -45.7227 0.252845
515
root -4.8071 14.7626 -41.604 3.62126 22.5628 -8.46336
lfemur -45.1888 28.7 -25.9841
ltibia 69.9567 0 0
lfoot -27.0035 30.6485 -0.0760205
ltoes 3.75778 0 0
rfemur -26.4357 -4.89412 13.1572
rtibia 74.6612 0 0
rfoot -6.3459 -18.3429 0.0694231
rtoes 13.6705 0 0
lowerback 16.099 -0.950734 -6.60398
upperback -0.649856 -2.14279 3.96582
thorax -9.3733 -0.582364 8.65791
lowerneck 6.24202 -16.0634 -16.4044
upperneck -0.679074 -22.9246 20.5526
head 3.216 -11.7404 7.85697
lclavicle 1.27146e-14 1.08459e-15 3.94522e-32
lhumerus -13.4883 -60.6865 103.232
lradius 84.2004 0 0
lwrist 30.1966 0 0
lhand -5.72751 42.5255 -0.11018
lfingers 7.12502 0 0
lthumb 20.0926 71.4801 -0.112766
rclavicle 1.27146e-14 1.08459e-15 3.94522e-32
rhumerus 60.2617 29.9866 -26.2967
rradius 103.92 0 0
rwrist -27.3421 0 0
rhand 5.28924 -19.1036 0.154238
rfingers 7.12502 0 0
rthumb 30.5984 -45.9936 0.28888
